<svg width="22" height="20" viewBox="0 0 22 20" xmlns="http://www.w3.org/2000/svg">
<path fill-rule="evenodd" clip-rule="evenodd" d="M0.649902 7.5C0.649902 3.55166 4.64908 0.5 9.2499 0.5C11.9244 0.5 14.3956 1.53121 15.9961 3.17031C19.2724 4.06355 21.85 6.60174 21.85 9.8C21.85 12.2753 20.327 14.603 18.0425 15.8711C18.4789 16.7604 18.8677 17.3912 19.1562 17.8091C19.3272 18.0568 19.4632 18.2299 19.5531 18.3378C19.5981 18.3917 19.6315 18.4294 19.6522 18.452C19.6625 18.4633 19.6696 18.4708 19.6733 18.4747L19.676 18.4775C19.8485 18.6517 19.8981 18.9137 19.8004 19.1388C19.7024 19.3648 19.4762 19.5079 19.23 19.4997L19.1788 19.4971C19.1504 19.4953 19.1108 19.4925 19.0608 19.4879C18.9607 19.4788 18.8189 19.4628 18.6412 19.4349C18.286 19.3791 17.7865 19.2755 17.191 19.0836C16.0425 18.7135 14.5355 18.0146 13.0201 16.6977C11.2568 16.6619 9.64821 16.2145 8.27613 15.4189C7.18259 16.1518 6.14336 16.5834 5.29731 16.8372C4.69981 17.0164 4.19863 17.1071 3.84204 17.1529C3.66367 17.1758 3.5212 17.1876 3.4206 17.1936L3.2499 17.2C3.00079 17.2 2.7776 17.0461 2.68907 16.8132C2.60113 16.5819 2.66425 16.3205 2.8476 16.1549L2.84862 16.1539L2.95961 16.0369C3.04588 15.94 3.17887 15.7795 3.34755 15.541C3.63449 15.1353 4.02514 14.5035 4.46485 13.5752C2.17616 12.3081 0.649902 9.97796 0.649902 7.5ZM7.96586 14.1714C7.92018 14.1959 7.87735 14.2265 7.8387 14.2629C6.77076 15.02 5.75586 15.4467 4.95245 15.6878C4.84142 15.7211 4.73444 15.7508 4.63192 15.7774C4.96998 15.2426 5.37149 14.5133 5.79904 13.5416C5.93106 13.2416 5.79784 12.8911 5.49985 12.7545C3.28261 11.7383 1.84985 9.63354 1.84985 7.49995C1.84985 4.44829 5.05068 1.69995 9.24985 1.69995C11.7003 1.69995 13.8107 2.63583 15.1435 4.02173C15.1826 4.0833 15.2329 4.13783 15.2924 4.18199C16.1524 5.14096 16.6499 6.29689 16.6499 7.49995C16.6499 10.5516 13.449 13.3 9.24985 13.3C9.10163 13.3 8.95865 13.3548 8.84848 13.454C8.55294 13.72 8.25766 13.9581 7.96586 14.1714ZM9.33161 14.6242C10.4715 15.1886 11.7923 15.5 13.25 15.5C13.3982 15.5 13.5412 15.5549 13.6514 15.654C15.0787 16.9386 16.5008 17.6004 17.559 17.9414C17.6662 17.976 17.7697 18.0072 17.8691 18.0355C17.5333 17.5012 17.1324 16.7835 16.7045 15.85C16.5665 15.5488 16.6987 15.1926 17 15.0546C19.2172 14.0383 20.65 11.9336 20.65 9.8C20.65 7.78512 19.3147 5.96761 17.2475 4.92562C17.635 5.71767 17.8499 6.58474 17.8499 7.5C17.8499 11.3824 13.9832 14.3978 9.4799 14.4975C9.43045 14.5404 9.38102 14.5826 9.33161 14.6242Z"/>
</svg>
