<svg width="20" height="18" viewBox="0 0 20 18" fill="none" xmlns="http://www.w3.org/2000/svg">
<path d="M16 6.49998C16 9.99998 12.4 12.9 8 12.9C5.84973 14.8352 3.69946 15.3834 2.65387 15.5386C2.42649 15.5724 2.28999 15.2869 2.42905 15.1038C2.79608 14.6207 3.36468 13.7439 4 12.3C1.6 11.2 0 8.89998 0 6.49998C0 2.99998 3.6 0.0999756 8 0.0999756C12.4 0.0999756 16 2.99998 16 6.49998Z" fill="#212124"/>
<path d="M16.8508 3.71551C16.6403 3.58709 16.4031 3.82769 16.4997 4.05453C16.8225 4.81246 17.0001 5.63342 17.0001 6.49993C17.0001 10.6113 13.0032 13.6972 8.45275 13.8903C8.40785 13.8922 8.36465 13.9089 8.33022 13.9378L8.28132 13.9787C8.13797 14.0978 8.16415 14.3269 8.33634 14.3984C9.43655 14.8546 10.6692 15.0999 12 15.0999C14.1686 17.0516 16.3371 17.6447 17.3726 17.8236C17.596 17.8622 17.7339 17.5929 17.5989 17.4107C17.2331 16.917 16.6517 16.0217 16 14.5999C18.4 13.4999 20 11.1999 20 8.79989C20 6.70674 18.7498 4.87408 16.8508 3.71551Z" fill="#212124"/>
</svg>
