<svg width="20" height="20" viewBox="0 0 20 20" fill="none" xmlns="http://www.w3.org/2000/svg">
<path fill-rule="evenodd" clip-rule="evenodd" d="M9.99996 1.36232L1.2244 9.16281V18.7755H6.53055V14.0816C6.53055 12.1215 8.03983 10.6122 9.99996 10.6122C11.9601 10.6122 13.4694 12.1215 13.4694 14.0816V18.7755H18.7755V9.16281L9.99996 1.36232ZM10.5423 0.206075C10.233 -0.0688546 9.76691 -0.0688546 9.45762 0.206075L0.273899 8.36938C0.0996214 8.52429 -9.15527e-05 8.74634 -9.15527e-05 8.97952V19.1836C-9.15527e-05 19.6345 0.365392 20 0.816239 20H6.93872C7.38957 20 7.75505 19.6344 7.75505 19.1836V14.0816C7.75505 12.7977 8.7161 11.8367 9.99996 11.8367C11.2838 11.8367 12.2449 12.7977 12.2449 14.0816V19.1836C12.2449 19.6345 12.6104 20 13.0612 20H19.1837C19.6345 20 20 19.6345 20 19.1836V8.97952C20 8.74634 19.9003 8.52429 19.726 8.36938L10.5423 0.206075Z" fill="#212124"/>
</svg>
