<svg width="20" height="20" viewBox="0 0 20 20" fill="none" xmlns="http://www.w3.org/2000/svg">
<path d="M9.46846 0.402024C9.77157 0.132594 10.2283 0.132594 10.5314 0.402024L19.5314 8.40202C19.7022 8.55384 19.7999 8.77144 19.7999 8.99995V19C19.7999 19.4418 19.4418 19.7999 19 19.7999H13C12.5581 19.7999 12.2 19.4418 12.2 19V14C12.2 12.7418 11.2581 11.8 9.99995 11.8C8.74178 11.8 7.79995 12.7418 7.79995 14V18.9999C7.79995 19.4417 7.44178 19.7999 6.99995 19.7999H0.999951C0.558123 19.7999 0.199951 19.4418 0.199951 19V8.99995C0.199951 8.77144 0.297669 8.55384 0.46846 8.40202L9.46846 0.402024Z" fill="#212124"/>
</svg>
