<svg width="22" height="20" viewBox="0 0 22 20" xmlns="http://www.w3.org/2000/svg">
<path d="M4.1499 6.9999C4.1499 6.66853 4.41853 6.3999 4.7499 6.3999H11.7499C12.0813 6.3999 12.3499 6.66853 12.3499 6.9999C12.3499 7.33127 12.0813 7.5999 11.7499 7.5999H4.7499C4.41853 7.5999 4.1499 7.33127 4.1499 6.9999Z"/>
<path d="M4.1499 10.9999C4.1499 10.6685 4.41853 10.3999 4.7499 10.3999H8.7499C9.08127 10.3999 9.3499 10.6685 9.3499 10.9999C9.3499 11.3313 9.08127 11.5999 8.7499 11.5999H4.7499C4.41853 11.5999 4.1499 11.3313 4.1499 10.9999Z"/>
<path fill-rule="evenodd" clip-rule="evenodd" d="M17.3501 1.4999C17.3501 1.16853 17.0815 0.899902 16.7501 0.899902H0.750147C0.418776 0.899902 0.150146 1.16853 0.150146 1.4999V16.4999C0.150146 17.9358 1.31421 19.0999 2.75015 19.0999H18.7501C20.1861 19.0999 21.3501 17.9358 21.3501 16.4999V6.4999C21.3501 6.16853 21.0815 5.8999 20.7501 5.8999H17.3501V1.4999ZM16.1501 16.4999C16.1501 17.0154 16.3001 17.4958 16.5589 17.8999H2.75015C1.97695 17.8999 1.35015 17.2731 1.35015 16.4999V2.0999H16.1501V16.4999ZM20.1501 16.4999C20.1501 17.2731 19.5233 17.8999 18.7501 17.8999C17.9769 17.8999 17.3501 17.2731 17.3501 16.4999V7.0999H20.1501V16.4999Z"/>
</svg>
