<svg width="22" height="20" viewBox="0 0 22 20" fill="none" xmlns="http://www.w3.org/2000/svg">
<path fill-rule="evenodd" clip-rule="evenodd" d="M17.0001 0.899902C17.3315 0.899902 17.6001 1.16853 17.6001 1.4999V16.0857C17.6001 16.8321 17.8966 17.5479 18.4244 18.0756C18.533 18.1842 18.6001 18.3342 18.6001 18.4999C18.6001 18.8313 18.3315 19.0999 18.0001 19.0999H3.00015C1.56421 19.0999 0.400146 17.9358 0.400146 16.4999V1.4999C0.400146 1.16853 0.668776 0.899902 1.00015 0.899902H17.0001ZM4.99995 6.3999C4.66858 6.3999 4.39995 6.66853 4.39995 6.9999C4.39995 7.33127 4.66858 7.5999 4.99995 7.5999H12C12.3313 7.5999 12.6 7.33127 12.6 6.9999C12.6 6.66853 12.3313 6.3999 12 6.3999H4.99995ZM4.99995 10.3999C4.66858 10.3999 4.39995 10.6685 4.39995 10.9999C4.39995 11.3313 4.66858 11.5999 4.99995 11.5999H8.99995C9.33132 11.5999 9.59995 11.3313 9.59995 10.9999C9.59995 10.6685 9.33132 10.3999 8.99995 10.3999H4.99995Z" fill="#212124"/>
<path d="M19.4 5.8999C19.0687 5.8999 18.8 6.16851 18.8 6.49988V16.3001C18.8 17.1837 19.4164 17.9001 20.3 17.9001C21.1837 17.9001 21.6 17.1837 21.6 16.3001V6.49988C21.6 6.16851 21.3314 5.8999 21 5.8999H19.4Z" fill="#212124"/>
</svg>
