<svg width="18" height="20" viewBox="0 0 18 20" xmlns="http://www.w3.org/2000/svg">
<path fill-rule="evenodd" clip-rule="evenodd" d="M8.9999 0.600098C5.90711 0.600098 3.3999 3.1073 3.3999 6.2001C3.3999 9.29289 5.90711 11.8001 8.9999 11.8001C12.0927 11.8001 14.5999 9.29289 14.5999 6.2001C14.5999 3.1073 12.0927 0.600098 8.9999 0.600098ZM4.5999 6.2001C4.5999 3.77004 6.56985 1.8001 8.9999 1.8001C11.43 1.8001 13.3999 3.77004 13.3999 6.2001C13.3999 8.63015 11.43 10.6001 8.9999 10.6001C6.56985 10.6001 4.5999 8.63015 4.5999 6.2001Z"/>
<path fill-rule="evenodd" clip-rule="evenodd" d="M8.9999 12.6001C3.80842 12.6001 0.399902 15.4293 0.399902 19.2001C0.399902 19.5315 0.668532 19.8001 0.999902 19.8001H16.9999C17.3313 19.8001 17.5999 19.5315 17.5999 19.2001C17.5999 15.4293 14.1914 12.6001 8.9999 12.6001ZM8.9999 13.8001C13.469 13.8001 16.023 15.9948 16.3613 18.6001H1.63852C1.97684 15.9948 4.53085 13.8001 8.9999 13.8001Z"/>
</svg>
